<svg xmlns="http://www.w3.org/2000/svg" viewBox="0 0 32 32" fill="none">
  <rect width="32" height="32" rx="8" fill="#09090b"/>
  <path d="M18 5h2a3 3 0 010 6h-2M18 5H6m12 0v1a7 7 0 01-4 6.26V15h2a1 1 0 011 1v4a1 1 0 01-1 1H8a1 1 0 01-1-1v-4a1 1 0 011-1h2v-2.74A7 7 0 016 6V5m0 0H4a3 3 0 000 6h2"
        stroke="#FFD700" stroke-width="2" stroke-linecap="round" stroke-linejoin="round"/>
  <circle cx="24" cy="24" r="7" fill="#FFD700"/>
  <path d="M22 24l1.5 1.5 3-3" stroke="#09090b" stroke-width="1.5" stroke-linecap="round" stroke-linejoin="round"/>
</svg>
